<svg width="64" height="64" viewBox="0 0 64 64" xmlns="http://www.w3.org/2000/svg"><svg x="29" y="15" width="34" height="34" xmlns="http://www.w3.org/2000/svg" viewBox="0 0 36 36"><path fill="#292F33" d="M32 36v-3c0-4-3.685-7-7-7H11c-3.313 0-7 3-7 7v3h28z"/><path fill="#546170" d="M22.5 30.003l4.292-.916L24.879 26l-2.379.003z"/><path fill="#66757F" d="M20.58 36h2.83l4.382-7.667-2.913.924-1.744-2.204z"/><path fill="#546170" d="M13.5 30.003l-4.292-.916L11.12 26l2.38.003z"/><path fill="#66757F" d="M15.42 36h-2.83l-4.382-7.667 2.912.924 1.745-2.204z"/><path fill="#DFE7EC" d="M20.805 36l2.862-10.017H12.333L15.195 36z"/><circle fill="#292F33" cx="18" cy="31.847" r=".7"/><circle fill="#292F33" cx="18" cy="34.704" r=".7"/><path fill="#FFDC5D" d="M14 25.887l4 1.75 4-1.75v-4h-8z"/><path fill="#F9CA55" d="M14 24c1.216 1.374 2.355 1.719 3.996 1.719 1.639 0 2.787-.346 4.004-1.719v-4h-8v4z"/><path fill="#F4F7F9" d="M13.927 24.744L18 27.637l-2.656 2.818-3.011-4.472zm8.146 0L18 27.637l2.656 2.818 3.011-4.472z"/><path fill="#292F33" d="M21.045 26.653c-.072-.043-.159-.043-.231-.003L18 28.197l-2.814-1.547c-.072-.04-.159-.039-.231.003-.071.042-.115.119-.115.201v3.218c0 .082.044.159.115.201.037.021.078.032.119.032.039 0 .077-.01.112-.029L18 28.728l2.814 1.548c.035.02.073.029.112.029.041 0 .082-.011.119-.032.07-.042.114-.119.114-.201v-3.218c0-.082-.044-.159-.114-.201z"/><path fill="#FFAC33" d="M21.597 1.516c-1.925-.623-6.455-.453-7.588 1.019-2.944.057-6.398 2.718-6.851 6.228-.448 3.475.551 5.088.906 7.701.403 2.96 2.067 3.907 3.397 4.303 1.914 2.529 3.949 2.421 7.366 2.421 6.672 0 9.85-4.464 10.131-12.047.17-4.585-2.521-8.059-7.361-9.625z"/><path fill="#FFDC5D" d="M25.413 11.466c-.646-.894-1.472-1.614-3.284-1.868.68.311 1.331 1.387 1.416 1.982.085.595.17 1.076-.368.481-2.155-2.382-4.502-1.444-6.827-2.899-1.624-1.016-2.119-2.141-2.119-2.141s-.198 1.5-2.661 3.029c-.714.443-1.566 1.43-2.038 2.888-.34 1.048-.234 1.982-.234 3.578 0 4.66 3.841 8.578 8.578 8.578s8.578-3.953 8.578-8.578c-.001-2.898-.305-4.03-1.041-5.05z"/><path fill="#C1694F" d="M18 22.88c-2.754 0-3.6-.705-3.741-.848-.256-.256-.256-.671 0-.927.248-.248.646-.255.902-.023.052.037.721.487 2.839.487 2.2 0 2.836-.485 2.842-.49.256-.255.657-.243.913.015.256.256.242.683-.014.938-.141.143-.987.848-3.741.848m.827-3.98h-1.906c-.263 0-.477-.213-.477-.477 0-.263.213-.477.477-.477h1.906c.263 0 .477.213.477.477s-.213.477-.477.477z"/><path fill="#662113" d="M14.062 15.564c-.526 0-.953-.427-.953-.953v-.953c0-.526.427-.953.953-.953s.953.427.953.953v.953c0 .526-.427.953-.953.953zm7.625 0c-.526 0-.953-.427-.953-.953v-.953c0-.526.427-.953.953-.953s.953.427.953.953v.953c0 .526-.427.953-.953.953z"/></svg><svg x="1" y="15" width="34" height="34" xmlns="http://www.w3.org/2000/svg" viewBox="0 0 36 36"><path fill="#E6E7E8" d="M35 18c0-7.002-2-13-7-16s-10-.784-10-.784v.034l-.001-.034S13-1 8 2s-7 8.998-7 16c0 7.003-1 18-1 18h36s-1-10.998-1-18z"/><path fill="#FFF" d="M26 28H10c-3.313 0-6 2.686-6 6v2h28v-2c0-3.314-2.685-6-6-6z"/><path fill="#FFDC5D" d="M13.64 28.106c0 .894 2.36 1.993 4.36 1.993s4.359-1.099 4.359-1.992V24.29h-8.72v3.816z"/><path fill="#F9CA55" d="M13.632 25.973c1.216 1.374 2.724 1.746 4.364 1.746 1.639 0 3.146-.373 4.363-1.746v-3.491h-8.728v3.491z"/><path fill="#FFAC33" d="M21.152 3.3c-1.925-.623-5.876-.46-7.008 1.012-2.944.057-6.083 2.932-6.536 6.443-.448 3.475.235 4.874.591 7.486.403 2.96 2.067 3.907 3.397 4.303 1.914 2.529 3.949 2.421 7.366 2.421 6.672 0 9.271-4.458 9.552-12.04.169-4.585-2.522-8.059-7.362-9.625z"/><path fill="#FFDC5D" d="M25.547 13.244c-.646-.894-1.472-1.614-3.284-1.868.68.311 1.331 1.387 1.416 1.982.085.595.17 1.076-.368.481-2.155-2.382-4.502-1.444-6.827-2.899-1.624-1.016-2.119-2.141-2.119-2.141s-.198 1.5-2.661 3.029c-.714.443-1.566 1.43-2.038 2.888-.34 1.048-.234 1.982-.234 3.578 0 4.66 3.841 8.578 8.578 8.578s8.578-3.953 8.578-8.578c-.002-2.899-.305-4.031-1.041-5.05z"/><path fill="#C1694F" d="M18.134 24.657c-2.754 0-3.6-.705-3.741-.848-.256-.256-.256-.671 0-.927.248-.248.646-.255.902-.023.052.037.721.487 2.839.487 2.2 0 2.836-.485 2.842-.49.256-.255.657-.243.913.015.256.256.242.683-.014.939-.142.142-.987.847-3.741.847m.827-3.98h-1.906c-.263 0-.477-.213-.477-.477s.213-.477.477-.477h1.906c.263 0 .477.213.477.477s-.213.477-.477.477z"/><path fill="#662113" d="M14.195 17.341c-.526 0-.953-.427-.953-.953v-.953c0-.526.427-.953.953-.953s.953.427.953.953v.953c0 .526-.426.953-.953.953zm7.626 0c-.526 0-.953-.427-.953-.953v-.953c0-.526.427-.953.953-.953s.953.427.953.953v.953c0 .526-.427.953-.953.953z"/><path fill="#FFF" d="M9.847 6.337C11.86 6.742 14.759 7 18 7c3.245 0 6.148-.258 8.162-.664-.559-.601-1.215-1.141-1.958-1.615C22.59 4.892 20.415 5 18 5c-2.23 0-4.266-.091-5.836-.24-.834.35-1.628.891-2.317 1.577z"/></svg></svg>
